<?xml version="1.0" encoding="UTF-8" standalone="no"?>
<!-- Created with Inkscape (http://www.inkscape.org/) -->

<svg
   xmlns:dc="http://purl.org/dc/elements/1.1/"
   xmlns:cc="http://creativecommons.org/ns#"
   xmlns:rdf="http://www.w3.org/1999/02/22-rdf-syntax-ns#"
   xmlns:svg="http://www.w3.org/2000/svg"
   xmlns="http://www.w3.org/2000/svg"
   xmlns:sodipodi="http://sodipodi.sourceforge.net/DTD/sodipodi-0.dtd"
   xmlns:inkscape="http://www.inkscape.org/namespaces/inkscape"
   width="308"
   height="246.03133"
   id="svg9164"
   version="1.1"
   inkscape:version="0.47pre3 "
   sodipodi:docname="lodzkie.svg"
   style="display:inline">
  <metadata
     id="metadata36">
    <rdf:RDF>
      <cc:Work
         rdf:about="">
        <dc:format>image/svg+xml</dc:format>
        <dc:type
           rdf:resource="http://purl.org/dc/dcmitype/StillImage" />
      </cc:Work>
    </rdf:RDF>
  </metadata>
  <defs
     id="defs34">
    <inkscape:perspective
       sodipodi:type="inkscape:persp3d"
       inkscape:vp_x="0 : 122.51566 : 1"
       inkscape:vp_y="0 : 1000 : 0"
       inkscape:vp_z="251.31239 : 122.51566 : 1"
       inkscape:persp3d-origin="125.6562 : 81.677109 : 1"
       id="perspective38" />
    <inkscape:perspective
       id="perspective2849"
       inkscape:persp3d-origin="0.5 : 0.33333333 : 1"
       inkscape:vp_z="1 : 0.5 : 1"
       inkscape:vp_y="0 : 1000 : 0"
       inkscape:vp_x="0 : 0.5 : 1"
       sodipodi:type="inkscape:persp3d" />
    <inkscape:perspective
       id="perspective9014"
       inkscape:persp3d-origin="0.5 : 0.33333333 : 1"
       inkscape:vp_z="1 : 0.5 : 1"
       inkscape:vp_y="0 : 1000 : 0"
       inkscape:vp_x="0 : 0.5 : 1"
       sodipodi:type="inkscape:persp3d" />
    <inkscape:perspective
       id="perspective7973"
       inkscape:persp3d-origin="0.5 : 0.33333333 : 1"
       inkscape:vp_z="1 : 0.5 : 1"
       inkscape:vp_y="0 : 1000 : 0"
       inkscape:vp_x="0 : 0.5 : 1"
       sodipodi:type="inkscape:persp3d" />
    <inkscape:perspective
       id="perspective5798"
       inkscape:persp3d-origin="0.5 : 0.33333333 : 1"
       inkscape:vp_z="1 : 0.5 : 1"
       inkscape:vp_y="0 : 1000 : 0"
       inkscape:vp_x="0 : 0.5 : 1"
       sodipodi:type="inkscape:persp3d" />
    <inkscape:perspective
       id="perspective5978"
       inkscape:persp3d-origin="0.5 : 0.33333333 : 1"
       inkscape:vp_z="1 : 0.5 : 1"
       inkscape:vp_y="0 : 1000 : 0"
       inkscape:vp_x="0 : 0.5 : 1"
       sodipodi:type="inkscape:persp3d" />
    <inkscape:perspective
       id="perspective3995"
       inkscape:persp3d-origin="0.5 : 0.33333333 : 1"
       inkscape:vp_z="1 : 0.5 : 1"
       inkscape:vp_y="0 : 1000 : 0"
       inkscape:vp_x="0 : 0.5 : 1"
       sodipodi:type="inkscape:persp3d" />
    <inkscape:perspective
       id="perspective3814"
       inkscape:persp3d-origin="0.5 : 0.33333333 : 1"
       inkscape:vp_z="1 : 0.5 : 1"
       inkscape:vp_y="0 : 1000 : 0"
       inkscape:vp_x="0 : 0.5 : 1"
       sodipodi:type="inkscape:persp3d" />
  </defs>
  <sodipodi:namedview
     pagecolor="#ffffff"
     bordercolor="#666666"
     borderopacity="1"
     objecttolerance="10"
     gridtolerance="10"
     guidetolerance="10"
     inkscape:pageopacity="0"
     inkscape:pageshadow="2"
     inkscape:window-width="1366"
     inkscape:window-height="706"
     id="namedview32"
     showgrid="false"
     inkscape:zoom="2.2273864"
     inkscape:cx="179.0739"
     inkscape:cy="109.37308"
     inkscape:window-x="-8"
     inkscape:window-y="-8"
     inkscape:window-maximized="1"
     inkscape:current-layer="layer1" />
  <g
     inkscape:groupmode="layer"
     id="layer1"
     inkscape:label="mapa"
     transform="translate(0.5,0.49999371)">
    <path
       style="opacity:0.98999999;fill:#9eb4d9;fill-opacity:1;fill-rule:evenodd;stroke:#ffffff;stroke-opacity:1;display:inline"
       d="m 190.0625,189.81251 -0.0937,-0.0312 -0.65625,-0.15625 -3.8125,-0.75 -2,-1.125 -2.28125,2.1875 -2.0625,1.09375 -0.46875,2.71872 -0.25,2 -0.5,2.6875 -0.71875,2.9063 -1.78125,-0.25 -2.03125,-0.4688 -2.4375,-1.5937 -1.5625,-1.375 -2.6875,-0.7188 -3.59375,0.1563 -1.53125,-1.5938 -0.875,-2.6875 -2.65625,-2.53122 -1.375,1.78125 -1.15625,2.90627 -3.125,-1.375 -3.1875,2.4062 -2.6875,-0.031 -0.1875,-2.25 -2.4375,-2.96872 -0.40625,-4.46875 -2.625,-3.875 0.6875,-1.5625 -1.9375,-4.28125 -2.9375,-0.28125 -2.4375,-1.15625 -2.5,1.09375 -1.375,1.78125 -0.9375,2.6875 -1.375,1.09375 -1.8125,1.78125 0.1875,2.6875 0.875,2.46875 -1.8125,0.65625 -2.28125,1.53125 -3.8125,-0.5 -1.59375,2 -2.6875,0.65627 -3.15625,0.4062 -0.9375,3.125 4.21875,1.625 0.40625,3.375 -1.59375,2 -1.8125,1.7813 -1.40625,3.125 -1.15625,1.5625 -0.90625,1.7812 2.4375,1.1563 2.6875,0.6875 0.59375,0.8125 1.09375,-0.4375 2.46875,0.2187 3.1875,-0.1562 1.78125,-0.125 -0.9375,2.0937 -0.1875,1.5938 0.5,1.4062 1.75,0.9063 0.34375,1.0625 0.15625,0.875 1.25,0.5625 1.59375,-1.2188 1.9375,0.75 0.84375,1.9375 1.03125,1.9688 1.03125,1.4062 0.6875,2.6563 0.6875,1.7812 0.3125,1.25 -0.0312,2.6563 1.21875,1.5937 1.375,1.7813 3.1875,0.5625 1.9375,-0.3125 2.125,-1.7188 2.5,-1.2187 1.59375,0.031 2.78125,2.6875 3.5,1.2812 1.0625,1.4375 1.375,1.9375 2.4375,1.0938 1.65625,0.1875 0.125,-0.1563 c -0.2275,-0.2377 -0.42925,-0.479 -0.53125,-0.7812 -0.18355,-0.545 -0.18488,-1.1858 0.0312,-1.7188 0.27325,-0.675 0.76225,-1.28 1.34375,-1.7187 0.61575,-0.4649 1.43012,-0.571 2.125,-0.9063 0.46375,-0.2235 0.97425,-0.391 1.34375,-0.75 0.55912,-0.5435 0.9895,-1.2283 1.375,-1.9062 0.34025,-0.5981 0.57725,-1.2596 0.8125,-1.9063 0.29725,-0.8167 0.46813,-1.6587 0.78125,-2.4687 0.35113,-0.9075 0.81362,-1.7896 1.1875,-2.6875 0.1435,-0.3444 0.306,-0.6809 0.4375,-1.0313 0.1315,-0.3505 0.247,-0.7113 0.375,-1.0625 0.276,-0.7592 0.49112,-1.5398 0.8125,-2.2812 0.34087,-0.7863 0.76188,-1.5201 1.15625,-2.2813 0.39438,-0.7611 0.87525,-1.483 1.1875,-2.2812 0.288,-0.7356 0.49388,-1.502 0.625,-2.2813 0.1488,-0.8843 0.10713,-1.7981 0.21875,-2.6875 0.1045,-0.8337 0.32725,-1.6635 0.40625,-2.5 0.0719,-0.7632 -0.0382,-1.518 0.0312,-2.2812 0.0817,-0.9 0.3085,-1.7936 0.4375,-2.6875 0.0414,-0.286 0.0711,-0.5855 0.0312,-0.8438 l 1.875,0.062 1.1875,2.6563 1.5625,2.8437 1.75,0.75 1.75,1.25 0.84375,1.7813 1.21875,1.25 1.03125,2.125 1.90625,2.1562 1.21875,0.9063 1.59375,0.375 1.0625,-1.2188 0.5625,-2.6562 0.75,-2.4375 1.09375,-2.6563 0.75,-3.1562 0.0312,-1.9375 -1.21875,-1.5938 -1.21875,-0.75 -3.875,-0.4062 0.0312,-3 0.0625,-2.4688 -0.6875,-3.1875 -0.15625,-1.0625 0.75,-2.4375 2.84375,-1.75 -1.71875,-3.43747 z"
       id="path8247" />
    <path
       style="opacity:0.98999999;fill:#9eb4d9;fill-opacity:1;fill-rule:evenodd;stroke:#ffffff;stroke-opacity:1;display:inline"
       d="m 118.9375,191.00001 -0.125,-0.0937 0.15625,-0.0625 -4,-2.5 -2.28125,0.40625 -1.75,-2.9375 -2.65625,-1.84375 -0.875,-2.9375 -3.09375,-2.0625 -2.75,3.78125 -3.8125,-2.09375 -0.375,-4.9375 -1.96875,-2.2813 -3.40625,2.65625 -3.59375,-1.1875 -4.03125,-0.9375 -5.15625,-0.3125 -3.40625,1.96875 -1.59375,1.78125 -3.625,1.3125 -3.375,0.625 0.4375,2.03125 0.625,2.46875 -0.25,2.90625 2.21875,1.625 0.84375,2.90625 -0.0312,2.03127 -4.5,0.375 -0.71875,2.9375 0.875,2.25 -1.8125,1.0937 -0.71875,3.5938 2.46875,0.6875 0.875,1.8125 -2.28125,2 -0.25,1.7812 0.0312,0.8125 0.21875,0 3.40625,0.062 3.21875,-0.9062 4.15625,0.4375 2.25,-0.3438 1.5625,-3.25 c 0.87913,0.3448 1.767,0.7334 2.59375,1.25 1.08275,0.6778 2.07525,1.4955 3.03125,2.3438 0.87837,0.7795 1.6495,1.6887 2.46875,2.5312 0.69237,0.7127 1.25638,1.5433 2.0625,2.125 0.4915,0.3548 1.12275,0.7039 1.71875,0.5938 0.59595,-0.1103 0.625,-0.4688 0.625,-0.4688 l 0.5,-0.7187 0.5625,-0.3125 0.71875,-0.062 1.6875,1.4375 2.46875,0.7187 1.9375,0.9063 1.03125,1.625 0.5,1.4062 1.40625,0.375 1.75,0.2188 2.125,0.9062 1.9375,0.9063 1.9375,0.1875 1.75,-0.3125 1.4375,-1.9375 1.09375,-1.0313 -0.875,-1.9375 0.0625,-2.8437 0.125,-0.062 -0.59375,-0.8125 -2.6875,-0.6875 -2.4375,-1.1563 0.90625,-1.7812 1.15625,-1.5625 1.40625,-3.125 1.8125,-1.7813 1.59375,-2 -0.40625,-3.375 -4.21875,-1.625 0.9375,-3.125 3.15625,-0.4062 2.6875,-0.65627 1.125,-1.40625 z"
       id="path8250" />
    <path
       style="opacity:0.98999999;fill:#9eb4d9;fill-opacity:1;fill-rule:evenodd;stroke:#ffffff;stroke-opacity:1;display:inline"
       d="m 75.3125,176.18751 -0.1875,-0.125 -0.625,-2.90625 2.28125,-2.4375 -1.5,-3.84375 0.9375,-2.6875 2.25,-0.875 -0.625,-3.8125 -3.34375,-2.09375 -4.90625,-2.09375 -1.78125,-0.25 -1.15625,1.125 0.40625,2.9375 -0.0625,3.8125 -4.0625,1.5 -3.375,0.84375 -3.125,-2.28125 -3.125,-0.5 -2.21875,-2.71875 -3.125,0.40625 -3.15625,0.1875 -1.15625,1.3125 -0.0312,3.59375 -4.0625,1.53125 -0.9375,1.3125 0.1875,3.15625 -2.71875,0.40625 -1.71875,-3.84375 -3.625,1.75 -0.71875,3.8125 -1.40625,2.90625 -2.5,1.96875 -0.0625,4.71875 -0.0625,4.0625 -1.1875,3.5625 0.1875,3.84372 0.1875,2.9063 -0.28125,3.375 -0.0937,0.75 c 0.59105,0.2002 1.21272,0.3204 1.75,0.625 0.59137,0.3352 1.11788,0.7544 1.59375,1.125 l 3.40625,-1 3.03125,-0.1563 1.6875,0.4063 0.90625,3.2187 1.6875,0.4063 1.71875,-1.6875 0.8125,-4.6875 2.84375,-0.9063 1.3125,2.6563 1.25,3.5937 0.71875,2.2813 3.78125,1.375 1.65625,1.9062 2.8125,1.5625 3.21875,-0.7187 2.46875,-1.0938 3.5625,0.25 -0.0312,-0.8125 0.25,-1.7812 2.28125,-2 -0.875,-1.8125 -2.46875,-0.6875 0.71875,-3.5938 1.8125,-1.0937 -0.875,-2.25 0.71875,-2.9375 4.5,-0.375 0.0312,-2.03127 -0.84375,-2.90625 -2.21875,-1.625 0.25,-2.90625 -0.625,-2.46875 -0.4375,-2.03125 3.375,-0.625 3.625,-1.3125 1.09375,-1.21875 z"
       id="path8253" />
    <path
       style="opacity:0.98999999;fill:#9eb4d9;fill-opacity:1;fill-rule:evenodd;stroke:#ffffff;stroke-opacity:1;display:inline"
       d="m 45.09375,160.34376 -0.0625,-0.1875 -3.5625,-1.1875 -2,-2.28125 -3.59375,-0.28125 -5.1875,0.625 -3.8125,1.28125 -3.375,0.40625 -1.09375,-2.9375 0.5,-2.6875 0,-0.78125 -9.25,-4.53125 -2.6875,2.03125 2.03125,2.3125 0.15625,3.1875 -1.75,3.5625 -3.59375,-0.59375 -1.53125,1.65625 -1.15625,2.25 L 1.90625,161.96876 0,164.00001 l 1.46875,2.3125 0.9375,2.09375 0.125,3 -0.21875,3.21875 0.15625,2.09375 2.0625,0.40625 2.65625,-0.53125 1.5,0 0.75,1.34375 -0.21875,2.25 0.34375,2.28125 -0.0312,2.09375 -1.75,2.59375 c -0.3905,0.53538 -0.95975,1.06737 -0.96875,1.65625 -0.011,0.76925 -0.081,1.53112 -0.25,2.28125 -0.10737,0.47437 -0.52685,0.86187 -0.59375,1.34375 -0.0801,0.57302 -0.16362,1.25892 0.1875,1.71872 0.43338,0.5677 1.2525,0.7123 1.90625,1 0.99912,0.4398 1.98637,0.8729 3.03125,1.1875 0.74412,0.2239 1.617,0.06 2.3125,0.4063 0.938,0.4666 1.60037,1.3819 2.46875,1.9687 0.972,0.6569 1.90975,1.4078 3.03125,1.75 1.35037,0.4114 2.839,0.1409 4.21875,0.4375 0.58136,0.125 1.11851,0.401 1.6875,0.5938 l 0.0937,-0.75 0.28125,-3.375 -0.1875,-2.9063 -0.1875,-3.84372 1.1875,-3.5625 0.0625,-4.0625 0.0625,-4.71875 2.5,-1.96875 1.40625,-2.90625 0.71875,-3.8125 3.625,-1.75 1.71875,3.84375 2.71875,-0.40625 -0.1875,-3.15625 0.9375,-1.3125 4.0625,-1.53125 0.0312,-3.59375 1.15625,-1.3125 0.28125,-0.0312 z"
       id="path8256" />
    <path
       style="opacity:0.98999999;fill:#9eb4d9;fill-opacity:1;fill-rule:evenodd;stroke:#ffffff;stroke-opacity:1;display:inline"
       d="m 229.1875,124.84376 -0.90625,0.15625 0,-0.625 -1.34375,0.5625 -0.40625,0.5625 -0.40625,0.84375 -0.5625,0.96875 -0.59375,1.03125 -0.59375,0.65625 -0.6875,0.5625 -1.125,0.1875 -1.15625,-0.21875 -1.71875,-0.3125 -0.875,0 -0.84375,0.65625 -0.90625,1.3125 -0.5,1.4375 -0.5,1.53125 -1.28125,1.6875 -2.03125,1.3125 -0.71875,2.25 -2.6875,0.625 -2.71875,1.53125 -1.59375,1.09375 0.1875,2.46875 -2.0625,1.5625 -5.15625,0.59375 -0.875,-1.59375 -4.28125,-0.0625 -2.28125,3.34375 -2.28125,1.3125 -5.84375,0.375 -2.28125,1.75 -3.15625,2.4375 -3.84375,2.1875 2.65625,2.75 2.4375,1.15625 2.4375,2.9375 2.03125,-0.40625 2.90625,0.25 1.0625,3.625 2.65625,3.625 1.3125,3.40625 0.84375,3.15625 0.625,2.03125 -2.46875,1.3125 -0.9375,1.53125 -1.59375,2 0.625,3.15625 -1.5,1.46875 3.0625,0.59375 0.65625,0.15625 0.0937,0.0312 -0.15625,-0.28125 3.90625,-2.0625 2.28125,1.625 7.40625,0.0937 2.3125,-1.71875 3.34375,-0.3125 2.84375,0.0312 2.875,-3.3125 -1.75,-2.84375 1.28125,-2.625 2.125,0.75 1.5625,0.90625 3.34375,-0.125 0.5625,-1.59375 2.8125,1.4375 2.125,-0.3125 0.2188,-4.4061 -1.34375,-3.375 -1.03125,-2.46875 1.96875,-1.9375 1.78125,-2.25 0.90625,-1.75 0.125,-0.125 -0.0625,0 -0.34375,-1.71875 0.78125,-2.0625 0.0312,-2.84375 0.59375,-1.875 1.90625,-1.09375 2.28125,-2.0625 0.4063,-1.6875 0.25,-2.625 1.125,-1.5 1.53125,-0.5625 0.78125,-1.6875 0.0312,-2.25 -0.3125,-3.59375 -2.09375,-0.0312 -2.46875,0.34375 -1.6875,-0.59375 -0.53125,-2.84375 0.4375,-3.21875 0.40625,-2.8125 -0.53125,-1.90625 -2.0625,-0.40625 -0.84375,-1.28125 z"
       id="path8259" />
    <path
       style="opacity:0.98999999;fill:#9eb4d9;fill-opacity:1;fill-rule:evenodd;stroke:#ffffff;stroke-opacity:1;display:inline"
       d="m 167.4375,147.28126 -3.59375,0.40625 -2.6875,-0.25 -1.15625,0.875 -3.15625,0.84375 -2.90625,0.40625 -2.5,1.78125 -2.09375,4 0.625,3.375 2.25,-0.1875 2,1.59375 3.8125,-0.15625 3.15625,-0.625 0.5,-2.6875 0.5,-3.8125 2.71875,-1.09375 2.46875,0.46875 0.90625,-2 -0.84375,-2.9375 z"
       id="path8267" />
    <path
       style="opacity:0.98999999;fill:#9eb4d9;fill-opacity:1;fill-rule:evenodd;stroke:#ffffff;stroke-opacity:1;display:inline"
       d="m 154.625,117.21876 -2.96875,2.65625 -3.59375,-0.0312 -0.0312,2.21875 2.21875,2.75 -4.09375,3.0625 3.0625,5.21875 -1.4375,6.28125 -6.96875,-0.3125 -1.0625,-2.71875 -2.6875,-1.1563 -2.90625,-0.71875 -1.84375,2.21875 -2.90625,-0.71875 1.09375,2.46875 2.46875,0.9375 -0.0625,3.375 -2.5,1.3125 0.4375,1.8125 2.6875,1.15625 2,1.375 0.84375,3.84375 -0.5,2.90625 -1.59375,0.65625 0.40625,2.90625 2.6875,1.40625 0.1875,3.375 -2.28125,1.96875 -0.53125,4.28125 0.65625,2.03125 -1.15625,3.34375 2.4375,1.15625 2.9375,0.28125 1.9375,4.28125 -0.6875,1.5625 2.625,3.875 0.40625,4.46875 2.4375,2.96872 0.1875,2.25 2.6875,0.031 3.1875,-2.4062 3.125,1.375 1.15625,-2.90627 1.375,-1.78125 2.65625,2.53122 0.875,2.6875 1.53125,1.5938 3.59375,-0.1563 2.6875,0.7188 1.5625,1.375 2.4375,1.5937 2.03125,0.4688 1.78125,0.25 0.71875,-2.9063 0.5,-2.6875 0.25,-2 0.46875,-2.71867 2.0625,-1.09375 2.28125,-2.1875 2,1.125 0.75,0.15625 1.5,-1.46875 -0.625,-3.15625 1.59375,-2 0.9375,-1.53125 2.46875,-1.3125 -0.625,-2.03125 -0.84375,-3.15625 -1.3125,-3.40625 -2.65625,-3.625 -1.0625,-3.625 -2.90625,-0.25 -2.03125,0.40625 -2.4375,-2.9375 -2.4375,-1.15625 -2.65625,-2.75 3.84375,-2.1875 3.15625,-2.4375 2.28125,-1.75 0.25,0 0.25,-2.46875 -1.09375,-3.15625 -3.09375,-2.75 -1.53125,-3.375 -3.59375,-0.75 -0.84375,-2.6875 3.625,-1.53125 -1.5625,-2.28125 -2.1875,-3.625 -2.6875,-0.6875 -0.71875,2.6875 0.84375,3.59375 -2.03125,1.53125 -2.6875,-0.6875 -1.09375,-2.9375 -3.5625,-0.5 -2.4375,-2.96875 0.71875,-3.59375 -0.625,-3.59375 -2.21875,-1.15625 -1.53125,-2.5 z"
       id="path8262" />
    <path
       style="opacity:0.98999999;fill:#768cb0;fill-opacity:1;fill-rule:evenodd;stroke:#ffffff;stroke-opacity:1;display:inline"
       d="m 167.4375,147.28126 0.84375,2.9375 -0.90625,2 -2.46875,-0.46875 -2.71875,1.09375 -0.5,3.8125 -0.5,2.6875 -3.15625,0.625 -3.8125,0.15625 -2,-1.59375 -2.25,0.1875 -0.625,-3.375 2.09375,-4 2.5,-1.78125 2.90625,-0.40625 3.15625,-0.84375 1.15625,-0.875 2.6875,0.25 3.59375,-0.40625 z"
       id="path8265" />
    <path
       style="opacity:0.98999999;fill:#9eb4d9;fill-opacity:1;fill-rule:evenodd;stroke:#ffffff;stroke-opacity:1;display:inline"
       d="m 129.625,136.50001 -3.15625,1 -3.15625,-0.5 -4.25,-0.96875 -3.78125,-1.625 -1.375,1.125 -0.46875,2 -1.625,4.03125 -1.84375,1.75 -3.375,1.09375 -2.6875,-0.9375 -3.59375,0.84375 -4.53125,1.96875 -0.28125,3.125 -0.25,3.375 -2.03125,0.875 2.375,6.3125 -1.40625,3.5625 -2.25,0.21875 -2.71875,1.28125 -3.5625,-2.0625 -2.9375,0.625 -1.96875,-2.25 -2.625,-0.0625 0.34375,2.03125 -2.25,0.875 -0.9375,2.6875 1.5,3.84375 -2.28125,2.4375 0.625,2.90625 0.1875,0.125 0.5,-0.5625 3.40625,-1.96875 5.15625,0.3125 4.03125,0.9375 3.59375,1.1875 3.40625,-2.65625 1.96875,2.28125 0.375,4.9375 3.8125,2.09375 2.75,-3.78125 3.09375,2.0625 0.875,2.9375 2.65625,1.84375 1.75,2.9375 2.28125,-0.40625 4,2.5 -0.15625,0.0625 0.125,0.0937 0.46875,-0.59375 3.8125,0.5 2.28125,-1.53125 1.8125,-0.65625 -0.875,-2.46875 -0.1875,-2.6875 1.8125,-1.78125 1.375,-1.09375 0.9375,-2.6875 1.375,-1.78125 2.5,-1.09375 1.15625,-3.34375 -0.65625,-2.03125 0.53125,-4.28125 2.28125,-1.96875 -0.1875,-3.375 -2.6875,-1.40625 -0.40625,-2.90625 1.59375,-0.65625 0.5,-2.90625 -0.84375,-3.84375 -2,-1.375 -2.6875,-1.15625 -0.4375,-1.8125 2.5,-1.3125 0.0625,-3.375 -2.46875,-0.9375 -0.875,-1.9375 z"
       id="path8272" />
    <path
       style="opacity:0.98999999;fill:#9eb4d9;fill-opacity:1;fill-rule:evenodd;stroke:#ffffff;stroke-opacity:1;display:inline"
       d="m 132.375,136.62501 -0.53125,-0.0625 0.46875,0.125 0.0625,-0.0625 z"
       id="path8270" />
    <path
       style="opacity:0.98999999;fill:#9eb4d9;fill-opacity:1;fill-rule:evenodd;stroke:#ffffff;stroke-opacity:1;display:inline"
       d="m 116.03125,134.71876 -0.75,-0.75 -1.5,-4.0625 -2.6875,-1.15625 -3.59375,-1.40625 0.0312,-2.25 0.9375,-2.46875 -3.09375,-2.0625 -1.53125,-2.71875 0.90625,-2.21875 3.40625,-1.75 -0.40625,-3.15625 -0.625,-3.15625 -2.65625,-3.40625 -2.4375,-2.96875 -4,-1.15625 -3.8125,-0.968754 -1.15625,1.343754 0.4375,2.25 2.40625,2.9375 2.65625,3.1875 -0.0312,2.46875 -5.40625,1.0625 0.65625,1.8125 -2.9375,1.53125 -1.40625,2.875 1.96875,4.53125 1.28125,3.84375 -1.59375,2.21875 -2.28125,2.65625 -2.75,2.65625 -2.28125,2.90625 -0.9375,3.34375 -0.0312,2.03125 -0.71875,1.5625 -2.03125,1.09375 -3.34375,-0.71875 -0.25,2 -0.9375,2.6875 -2.5,0.1875 -1.125,1.5625 -0.46875,2 -2.0625,2 0,0.1875 0.21875,0.0312 4.90625,2.09375 3.34375,2.09375 0.28125,1.78125 2.625,0.0625 1.96875,2.25 2.9375,-0.625 3.5625,2.0625 2.71875,-1.28125 2.25,-0.21875 1.40625,-3.5625 -2.375,-6.3125 2.03125,-0.875 0.25,-3.375 0.28125,-3.125 4.53125,-1.96875 3.59375,-0.84375 2.6875,0.9375 3.375,-1.09375 1.84375,-1.75 1.625,-4.03125 0.46875,-2 1.375,-1.125 0.75,0.3125 z"
       id="path8275" />
    <path
       style="opacity:0.98999999;fill:#9eb4d9;fill-opacity:1;fill-rule:evenodd;stroke:#ffffff;stroke-opacity:1;display:inline"
       d="m 94.0625,99.250006 -3.21875,-0.90625 -2.46875,0.1875 -2.28125,2.000004 -2.03125,1.09375 -3.78125,-1.40625 -3.15625,0.84375 -2.75,3.5625 -1.59375,1.53125 0.375,3.375 -3.59375,1.3125 0.625,2.9375 -0.9375,1.78125 0.21875,1.5625 3.8125,-0.375 1.53125,2.9375 1.96875,3.84375 -1.375,2.4375 -3.1875,2 -2.25,2.1875 -0.28125,2.25 1.125,1.59375 2.4375,0.5 1.09375,2.03125 0.65625,2.6875 -0.5,3.375 1.53125,2.5 0.5625,0.5625 0.125,-1 3.34375,0.71875 2.03125,-1.09375 0.71875,-1.5625 0.0312,-2.03125 0.9375,-3.34375 2.28125,-2.90625 2.75,-2.65625 2.28125,-2.65625 1.59375,-2.21875 -1.28125,-3.84375 -1.96875,-4.53125 1.40625,-2.875 2.9375,-1.53125 -0.65625,-1.8125 5.40625,-1.0625 0.0312,-2.46875 -2.65625,-3.1875 -2.40625,-2.9375 -0.4375,-2.25 1,-1.156254 z"
       id="path8278" />
    <path
       style="opacity:0.98999999;fill:#9eb4d9;fill-opacity:1;fill-rule:evenodd;stroke:#ffffff;stroke-opacity:1;display:inline"
       d="m 73.21875,105.71876 -2,-1.15625 -1.53125,-2.03125 -2.6875,-2.0625 -2,-1.593754 -2.0625,3.343754 -2.25,0.625 -3.375,-0.5 -3.34375,-1.15625 0.96875,-4.468754 1.625,-3.59375 0.5,-3.34375 -0.15625,-0.53125 -0.15625,0.1875 -2.21875,-0.5625 -3.5625,-1.5625 -3.21875,-0.4375 -2.65625,1.28125 -1.5,-0.1875 -1.5,-1.75 -2.625,-0.21875 -0.8125,2.84375 -2.09375,0.90625 -0.78125,2.25 -1.1875,2.8125 -0.375,1.5 0.53125,2.09375 -0.21875,2.062504 -0.78125,2.28125 -0.0312,2.25 -0.8125,2.25 -0.375,1.5 -2.3125,1.875 -1.34375,2.4375 0.6875,3.78125 -0.40625,2.625 -0.40625,1.90625 -1.53125,1.65625 -0.0312,1.34375 2.25,1.34375 -0.0312,2.65625 -0.21875,2.4375 -0.625,3.1875 -0.1875,1.53125 1.09375,1.90625 0.34375,2.4375 0.125,4.75 -1.71875,1.65625 -3.125,7.125 -2.1875,-1.09375 0,0.78125 -0.5,2.6875 1.09375,2.9375 3.375,-0.40625 3.8125,-1.28125 5.1875,-0.625 3.59375,0.28125 2,2.28125 3.5625,1.1875 0.0625,0.1875 2.875,-0.15625 3.125,-0.40625 2.21875,2.71875 3.125,0.5 3.125,2.28125 3.375,-0.84375 4.0625,-1.5 0.0625,-3.8125 -0.40625,-2.9375 1.15625,-1.125 1.5625,0.21875 0,-0.1875 2.0625,-2 0.46875,-2 1.125,-1.5625 2.5,-0.1875 0.9375,-2.6875 0.125,-1 -0.5625,-0.5625 -1.53125,-2.5 0.5,-3.375 -0.65625,-2.6875 -1.09375,-2.03125 -2.4375,-0.5 -1.125,-1.59375 0.28125,-2.25 2.25,-2.1875 3.1875,-2 1.375,-2.4375 -1.96875,-3.84375 -1.53125,-2.9375 -3.8125,0.375 -0.21875,-1.5625 0.9375,-1.78125 -0.625,-2.9375 3.59375,-1.3125 -0.375,-3.375 0.4375,-0.4375 z"
       id="path8281" />
    <path
       style="opacity:0.98999999;fill:#9eb4d9;fill-opacity:1;fill-rule:evenodd;stroke:#ffffff;stroke-opacity:1;display:inline"
       d="m 225.84375,117.15626 -1.375,0.1875 -3.59375,0.375 -1.3125,-1.59375 -3.125,-0.71875 -2.9375,-0.71875 -0.625,-3.375 -0.15625,-3.125 -2.6875,-1.84375 -4.46875,-0.28125 -2.5,1.53125 -2.03125,-0.5 -2.21875,-1.8125 -1.3125,-2.9375 -2.65625,-0.71875 -3.125,-2.281254 -4.46875,-1.1875 -2.28125,2.437504 -0.28125,2.6875 -1.59375,1.3125 -1.8125,2.21875 -1.1875,4.25 -1.375,2.25 -2.5,1.3125 -2.21875,-1.84375 -2.1875,-4.0625 -4.9375,-1.1875 -2.9375,1.28125 -2.46875,-0.46875 -1.375,2.4375 -0.9375,2.6875 -0.0625,4.0625 -0.71875,3.125 -0.28125,0.0937 0.28125,0.125 0.625,3.59375 -0.71875,3.59375 2.4375,2.96875 3.5625,0.5 1.09375,2.9375 2.6875,0.6875 2.03125,-1.53125 -0.84375,-3.59375 0.71875,-2.6875 2.6875,0.6875 2.1875,3.625 1.5625,2.28125 -3.625,1.53125 0.84375,2.6875 3.59375,0.75 1.53125,3.375 3.09375,2.75 1.09375,3.15625 -0.25,2.46875 5.59375,-0.375 2.28125,-1.3125 2.28125,-3.34375 4.28125,0.0625 0.875,1.59375 5.15625,-0.5937 2.0625,-1.5625 -0.1875,-2.46875 1.59375,-1.09375 2.71875,-1.53125 2.6875,-0.625 0.71875,-2.25 2.03125,-1.3125 1.28125,-1.6875 0.5,-1.53125 0.5,-1.4375 0.90625,-1.3125 0.84375,-0.65625 0.875,0 1.71875,0.3125 1.15625,0.21875 1.125,-0.1875 0.6875,-0.5625 0.59375,-0.65625 0.59375,-1.03125 0.5625,-0.96875 0.40625,-0.84375 0.40625,-0.5625 1.34375,-0.5625 0,0.625 0.90625,-0.15625 -0.28125,-0.4375 -0.3125,-2.625 -0.53125,-2.84375 -1.125,-1.15625 -1.09375,-0.625 z"
       id="path8284" />
    <path
       style="opacity:0.98999999;fill:#9eb4d9;fill-opacity:1;fill-rule:evenodd;stroke:#ffffff;stroke-opacity:1;display:inline"
       d="m 235.09375,78.468756 0.0312,0.90625 -0.4375,0.125 -1.15625,2.90625 -3.15625,-0.0312 -2.5,2.1875 -2.21875,-2.03125 -2.5,1.3125 -4.4375,-2.3125 -1.15625,2.4375 -0.9375,1.34375 -6.03125,-1.65625 -4.28125,0.375 -2.28125,2.4375 -2.25,-0.6875 -3.59375,1.28125 -1.40625,3.59375 5.59375,1.875 2.21875,1.59375 -0.9375,3.375 -2.71875,1.96875 -0.71875,2.468754 -2.46875,0.40625 -0.125,0.3125 1.1875,2.625 2.21875,1.8125 2.03125,0.5 2.5,-1.53125 4.46875,0.28125 2.6875,1.84375 0.15625,3.125 0.625,3.375 2.9375,0.71875 3.125,0.71875 1.3125,1.59375 3.59375,-0.375 1.375,-0.1875 -1.34375,-0.75 1.1875,-3.375 1.53125,-0.90625 1.6875,-0.75 1.9375,-1.65625 2.625,0.40625 1.875,0.40625 1.875,0.40625 0.5625,1.34375 10.1875,1.84375 3.25,-3.9375 0.0937,-5.84375 -6.75,-4.0625 -0.5,-5.687504 -0.6875,-2.84375 0.21875,-1.875 3.1875,-0.15625 0.0312,-1.6875 -1.09375,-2.46875 -1.5,-0.96875 -0.53125,-3.21875 -2.21875,-2.3125 -4.53125,-1.1875 -1.84375,0.59375 z"
       id="path8287" />
    <path
       style="opacity:0.98999999;fill:#9eb4d9;fill-opacity:1;fill-rule:evenodd;stroke:#ffffff;stroke-opacity:1;display:inline"
       d="m 97.6875,30.406256 -0.25,-0.0312 0.28125,0.0625 -0.0312,-0.0312 z"
       id="path9088" />
    <path
       style="opacity:0.98999999;fill:#9eb4d9;fill-opacity:1;fill-rule:evenodd;stroke:#ffffff;stroke-opacity:1;display:inline"
       d="m 137.5625,83.968756 -3.84375,2.1875 -2.5,1.53125 -3.375,1.3125 -2.46875,-1.1875 -2.03125,0.875 -1.8125,0.875 -1.375,2.21875 1.96875,2.5 -0.46875,2.46875 0.875,1.8125 1.75,2.062504 -1.15625,4.03125 -2.0625,1.09375 1.34375,1.125 2.21875,1.84375 1.78125,1.8125 5.375,1.4375 2.71875,-2 2.03125,-0.1875 3.34375,1.15625 2.96875,-2.40625 4.6875,1.1875 2.0625,-2.4375 1.15625,-3.59375 -0.40625,-2.6875 -1.53125,-3.187504 -0.59375,-4.03125 -1.09375,-2.9375 -4.5,0.59375 -0.625,-2.25 2.46875,-0.875 -0.625,-2.46875 -3.375,0.1875 -2.90625,-2.0625 z"
       id="path9094" />
    <path
       style="opacity:0.98999999;fill:#9eb4d9;fill-opacity:1;fill-rule:evenodd;stroke:#ffffff;stroke-opacity:1;display:inline"
       d="m 134.59375,134.56251 2.46875,0.625 2.6875,1.15625 1.0625,2.71875 6.96875,0.3125 1.4375,-6.28125 -3.0625,-5.21875 4.09375,-3.0625 -2.21875,-2.75 0.0312,-2.21875 3.59375,0.0312 2.96875,-2.65625 1.53125,2.5 1.9375,1.03125 0.28125,-0.0937 0.71875,-3.125 0.0625,-4.0625 0.9375,-2.6875 1.375,-2.4375 2.46875,0.46875 2.9375,-1.28125 4.9375,1.1875 2.1875,4.0625 2.21875,1.84375 2.5,-1.3125 1.375,-2.25 1.1875,-4.25 1.8125,-2.21875 1.59375,-1.3125 0.125,-1.3125 -0.3125,-0.25 -2.6875,-0.71875 -0.9375,2 -4.0625,0.625 -0.625,-2.71875 2.71875,-1.968754 -2.65625,-2.53125 -2.9375,0.875 -1.34375,-0.6875 -2.46875,0.625 -2.46875,0.40625 -2.5,2.21875 c 0,0 -0.58206,0.10736 -1.3125,0.125 -0.73044,0.0176 -1.61225,-0.0597 -2.28125,-0.40625 l -3.15625,1.093754 -4.53125,1.5 -1.53125,-1.59375 1.59375,-2.437504 0.71875,-3.59375 -0.375,-5.1875 -0.15625,-4.25 -2.65625,-1.625 -2.9375,-0.25 -0.71875,2.90625 -3,0.9375 -9.40625,2.5625 -4.25,2.0625 0.78125,20.718754 -0.0625,4.03125 -1.84375,4.03125 1.53125,1.8125 0.875,2.25 2.25,1.15625 -0.0312,2.03125 -0.5,2 0.875,1.8125 0.1875,3.03125 z"
       id="path9101" />
    <path
       style="opacity:0.98999999;fill:#9eb4d9;fill-opacity:1;fill-rule:evenodd;stroke:#ffffff;stroke-opacity:1;display:inline"
       d="m 134.59375,134.56251 -0.1875,-3.03125 -0.875,-1.8125 0.5,-2 0.0312,-2.03125 -2.25,-1.15625 -0.875,-2.25 -1.53125,-1.8125 1.84375,-4.03125 0.0625,-4.03125 -0.78125,-20.718754 -9.09375,4.40625 -3.375,1.0625 -3.59375,-0.5 -3.125,-2.5 -3.125,-0.96875 -3.34375,-2.0625 -2.65625,-1.84375 -3.625,1.09375 -2.90625,-0.5 -3.125,-1.15625 -3.375,0.375 -2.28125,2.21875 0.875,1.59375 2.65625,2.28125 2,1.59375 1.09375,2.0625 0.0312,0.25 0.5,0.15625 0.15625,-0.1875 3.8125,0.968754 4,1.15625 2.4375,2.96875 2.65625,3.40625 0.625,3.15625 0.40625,3.15625 -3.40625,1.75 -0.90625,2.21875 1.53125,2.71875 3.09375,2.0625 -0.9375,2.46875 -0.0312,2.25 3.59375,1.40625 2.6875,1.15625 1.5,4.0625 0.75,0.75 3.03125,1.3125 4.25,0.96875 3.15625,0.5 3.15625,-1 -0.0312,-0.0937 -0.1875,-0.4375 2.4375,0.59375 0.53125,0.0625 1.78125,-2.15625 0.4375,0.0937 z"
       id="path9098" />
    <path
       style="opacity:0.98999999;fill:#9eb4d9;fill-opacity:1;fill-rule:evenodd;stroke:#ffffff;stroke-opacity:1;display:inline"
       d="m 187.46875,98.218756 0,-0.0625 -2.21875,-2.96875 -0.625,-3.375 1.625,-2.21875 0.46875,-1.78125 -3.59375,-0.71875 -3.34375,-1.1875 -4.25,-2.75 -1.28125,-3.15625 -1.3125,-3.625 -1.75,-3.40625 -1.96875,-3.84375 -3.59375,1.75 -3.625,0.1875 -4.46875,0.375 -1.1875,2.90625 -1.625,3.34375 3.125,2.53125 -1.15625,1.75 -3.625,2.875 0.4375,0.25 0.15625,4.25 0.375,5.1875 -0.71875,3.59375 -1.59375,2.437504 1.53125,1.59375 4.53125,-1.5 3.15625,-1.093754 c 0.669,0.34656 1.55081,0.42389 2.28125,0.40625 0.73044,-0.0176 1.3125,-0.125 1.3125,-0.125 l 2.5,-2.21875 2.46875,-0.40625 2.46875,-0.625 1.34375,0.6875 2.9375,-0.875 2.65625,2.53125 -2.71875,1.968754 0.625,2.71875 4.0625,-0.625 0.9375,-2 2.6875,0.71875 0.3125,0.25 0.15625,-1.375 2.28125,-2.437504 0.21875,0.0625 z"
       id="path9104" />
    <path
       style="opacity:0.98999999;fill:#9eb4d9;fill-opacity:1;fill-rule:evenodd;stroke:#ffffff;stroke-opacity:1;display:inline"
       d="m 201.90625,62.625006 -3.40625,1.96875 -2.71875,1.5625 0.875,2.6875 -0.0625,3.15625 6.75,0.78125 1.59375,-2.90625 -1.09375,-2.71875 3.40625,-1.3125 -0.65625,-2.46875 -4.6875,-0.75 z"
       id="path9112" />
    <path
       style="opacity:0.98999999;fill:#9eb4d9;fill-opacity:1;fill-rule:evenodd;stroke:#ffffff;stroke-opacity:1;display:inline"
       d="m 196.5625,37.250006 -0.4375,0.84375 0.28125,-0.25 -1.125,1.78125 -0.0312,1.78125 1.3125,1.59375 0.1875,2.25 -2.25,0.875 -0.6875,1.78125 1.53125,1.59375 1.3125,3.625 -0.53125,4.25 -2.25,0.65625 -2.5,2.21875 -1.375,2.21875 -3.59375,0.625 -3.375,-0.5 -2.71875,2.21875 -1.40625,2.65625 -2.71875,2.21875 1.53125,3.375 -1.375,2 -3.8125,-0.0312 -0.15625,0.25 0.5625,1.09375 1.3125,3.625 1.28125,3.15625 4.25,2.75 3.34375,1.1875 3.59375,0.71875 -0.46875,1.78125 -1.625,2.21875 0.625,3.375 2.21875,2.96875 0,0.0625 4.25,1.125 3.125,2.281254 2.65625,0.71875 0.125,0.3125 0.125,-0.3125 2.46875,-0.40625 0.71875,-2.468754 2.71875,-1.96875 0.9375,-3.375 -2.21875,-1.59375 -5.59375,-1.875 1.40625,-3.59375 3.59375,-1.28125 2.25,0.6875 2.28125,-2.4375 4.28125,-0.375 6.03125,1.65625 0.9375,-1.34375 1.15625,-2.4375 4.4375,2.3125 2.5,-1.3125 2.21875,2.03125 2.5,-2.1875 3.15625,0.0312 1.15625,-2.90625 0.4375,-0.125 -0.0312,-0.90625 -0.40625,0.125 -1.5,-1.53125 -1.4375,-5.3125 -3.5625,-1 -4.9375,0.5 -2.28125,2.0625 -5.3125,0.0937 -0.71875,-1.6875 -4.53125,-0.0625 0.0312,-2.46875 2.875,-2.78125 -1.09375,-3.0625 -2.78125,-2.84375 -2.25,-1.5625 -0.34375,-2.28125 1.90625,-2.03125 1.5625,-2.25 0.0312,-3.21875 1.71875,-0.53125 -0.875,-5.6875 -5.28125,-0.25 -1.875,-1.34375 -2.40625,-3.0625 -3.5625,-0.4375 -1.5,-0.59375 z"
       id="path9107" />
    <path
       style="opacity:0.98999999;fill:#768cb0;fill-opacity:1;fill-rule:evenodd;stroke:#ffffff;stroke-opacity:1;display:inline"
       d="m 201.90625,62.625006 4.6875,0.75 0.65625,2.46875 -3.40625,1.3125 1.09375,2.71875 -1.59375,2.90625 -6.75,-0.78125 0.0625,-3.15625 -0.875,-2.6875 2.71875,-1.5625 3.40625,-1.96875 z"
       id="path9110" />
    <path
       style="opacity:0.98999999;fill:#9eb4d9;fill-opacity:1;fill-rule:evenodd;stroke:#ffffff;stroke-opacity:1;display:inline"
       d="m 169.65625,69.968756 -0.1875,-0.84375 -0.4375,-2.25 -3.125,-1.84375 -4.21875,-2.0625 -3.5625,-2.09375 2.5,-1.96875 -2.6875,-2.28125 -2.03125,0.875 -2.90625,0.15625 -3.375,1.09375 -3.375,-1.40625 -3.375,0.40625 -2.5,1.75 -3.5625,-0.71875 -1.59375,0.4375 0.625,3.375 -3.375,-0.0625 -1.75,-2.71875 -2.71875,1.3125 -3.375,0.40625 -0.40625,-3.15625 -2.21875,-0.46875 -2.9375,1.0625 -3.59375,-1.625 -3.375,0.40625 -4.28125,1.28125 -3.59375,1.3125 -3.625,0.40625 -0.46875,1.5625 1.75,4.28125 0.84375,3.59375 -0.75,4.0625 0.875,1.78125 4.0625,-0.59375 -0.0312,2.46875 -0.5,2.90625 -2.5,2.21875 -0.71875,2.46875 -0.28125,3.8125 -0.0312,0.40625 2.03125,1.40625 3.34375,2.0625 3.125,0.96875 3.125,2.5 3.59375,0.5 3.375,-1.0625 13.34375,-6.46875 9.40625,-2.5625 3,-0.9375 0.71875,-2.90625 2.9375,0.25 2.21875,1.375 3.625,-2.875 1.15625,-1.75 -3.125,-2.53125 1.625,-3.34375 1.1875,-2.90625 4.46875,-0.375 3.625,-0.1875 3.59375,-1.75 0.4375,0.84375 z"
       id="path9115" />
    <path
       style="opacity:0.98999999;fill:#9eb4d9;fill-opacity:1;fill-rule:evenodd;stroke:#ffffff;stroke-opacity:1;display:inline"
       d="m 100.3125,61.750006 -0.40625,-0.125 L 97,60.906256 l -3.8125,-0.0625 -2.6875,-1.375 -2.46875,0.1875 -2.4375,-1.59375 -1.8125,1.53125 -2.46875,-0.46875 -0.46875,1.5625 L 77,62.406256 75.46875,59.687506 77.5,57.031256 76.65625,55.000006 73.75,54.281256 l -0.65625,-2.03125 -0.21875,-0.15625 -1.59375,0.5625 -2.25,0.15625 -3.96875,-0.8125 -1.3125,-1.53125 -3.03125,1.75 c 0.33087,0.6945 0.57987,1.32812 0.71875,2 0.18132,0.87475 -0.0472,1.79325 -0.0312,2.6875 0.0195,1.0875 -0.0836,2.22012 0.15625,3.28125 0.18925,0.83562 0.655,1.57613 1.09375,2.3125 0.21075,0.35388 0.46225,0.67938 0.625,1 l -0.875,2.0625 0.34375,2.65625 0.90625,2.46875 0.75,1.5 2.03125,1.9375 c -0.38762,0.63213 -0.93537,1.16837 -1.28125,1.8125 -0.45987,0.85712 -0.61988,1.89688 -1.1875,2.6875 -0.5935,0.82625 -1.31963,1.5345 -2,2.53125 l -0.96875,1.625 -0.84375,1.8125 -0.84375,1.65625 -1.0625,1.21875 -1.34375,1.78125 0.15625,0.53125 -0.5,3.34375 -1.625,3.59375 -0.96875,4.468754 3.34375,1.15625 3.375,0.5 2.25,-0.625 2.0625,-3.343754 2,1.593754 2.6875,2.0625 1.53125,2.03125 2,1.15625 1.15625,-1.09375 2.75,-3.5625 3.15625,-0.84375 3.78125,1.40625 2.03125,-1.09375 2.28125,-2.000004 2.46875,-0.1875 2.71875,0.75 -0.0312,-0.25 -1.09375,-2.0625 -2,-1.59375 -2.65625,-2.28125 -0.875,-1.59375 2.28125,-2.21875 3.375,-0.375 3.125,1.15625 2.90625,0.5 3.625,-1.09375 0.625,0.4375 0.0312,-0.40625 0.28125,-3.8125 0.71875,-2.46875 2.5,-2.21875 0.5,-2.90625 0.0312,-2.46875 -4.0625,0.59375 -0.875,-1.78125 0.75,-4.0625 -0.84375,-3.59375 -1.75,-4.28125 0.1875,-0.5625 z"
       id="path9118" />
    <path
       style="opacity:0.98999999;fill:#9eb4d9;fill-opacity:1;fill-rule:evenodd;stroke:#ffffff;stroke-opacity:1;display:inline"
       d="m 142.78125,57.812506 0.0937,-0.0625 3.375,-0.40625 3.375,1.40625 3.375,-1.09375 2.90625,-0.15625 2.03125,-0.875 2.6875,2.28125 -2.5,1.96875 3.5625,2.09375 4.21875,2.0625 3.125,1.84375 0.4375,2.25 0.1875,0.84375 1.53125,3 1.1875,2.3125 0.15625,-0.25 3.8125,0.0312 1.375,-2 -1.53125,-3.375 2.71875,-2.21875 1.40625,-2.65625 2.71875,-2.21875 3.375,0.5 3.59375,-0.625 1.375,-2.21875 2.5,-2.21875 2.25,-0.65625 0.53125,-4.25 -1.3125,-3.625 -1.53125,-1.59375 0.6875,-1.78125 2.25,-0.875 -0.1875,-2.25 -1.3125,-1.59375 0.0312,-1.78125 1.125,-1.78125 -0.28125,0.25 0.4375,-0.84375 -1.53125,-0.59375 -1.65625,-3.21875 -0.6875,-2.84375 0.25,-5.46875 -3.34375,-3.84375 -6.40625,-0.84375 -1.46875,-3.78125 -6.1875,-2.9375 -4.03125,5.0625 -2.625,-1.375 -2.46875,0.15625 -1.71875,2.0625 -2.09375,1.84375 -1.9375,-0.34375 0.0312,0.46875 2.4375,2.28125 0.21875,1.59375 -1.8125,1.78125 -1.59375,1.3125 -2.28125,2 0.15625,3.59375 -1.8125,1.53125 0.1875,3.375 -3.625,1.0625 -1.8125,2.6875 -2.0625,0.875 -3.34375,-0.71875 -3.34375,-1.40625 -3.25,-0.84375 -0.5,-0.0312 0.375,0.15625 0.875,2.03125 0.625,3.375 -0.0312,2.90625 -0.0312,2.25 0.84375,2.9375 1.875,3.46875 z"
       id="path9121" />
    <path
       style="opacity:0.98999999;fill:#9eb4d9;fill-opacity:1;fill-rule:evenodd;stroke:#ffffff;stroke-opacity:1;display:inline"
       d="m 142.78125,57.812506 -1.875,-3.46875 -0.84375,-2.9375 0.0312,-2.25 0.0312,-2.90625 -0.625,-3.375 -0.875,-2.03125 -0.375,-0.15625 -2.3125,-0.125 -3.15625,1.3125 -2.71875,1.53125 -3.40625,1.75 -2.46875,-0.46875 -1.3125,-2.28125 -1.9375,-4.75 -2,-2.28125 -4.9375,0.84375 -2.25,-1.84375 -2.4375,-1.15625 -2.25,-0.46875 -1.09375,-1.8125 -3.125,-0.9375 -2.03125,0.84375 -3.125,-0.4375 0.0312,0.0312 -0.28125,-0.0625 0.25,0.0312 -0.59375,-0.65625 c -0.78996,0.41266 -1.5,0.40625 -1.5,0.40625 l -2.0625,-1.375 -2.8125,-0.40625 -2.46875,-0.0312 -3.625,2.03125 -2.4375,0.34375 -1.5625,3.375 -0.0625,3.59375 -0.0312,2.4375 1.3125,1.15625 2.0625,1.15625 0.15625,1.90625 -0.78125,1.3125 -1.34375,2.0625 -0.21875,2.0625 -0.0625,1.71875 c -0.42013,-0.1854 -0.80588,-0.2132 -1.1875,-0.25 -0.7735,-0.0755 -1.54425,-0.16 -2.28125,-0.40625 -0.67737,-0.22612 -1.21813,-0.80862 -1.90625,-1 -0.55375,-0.15378 -1.17712,-0.0765 -1.75,-0.0312 -0.19275,0.0156 -0.3705,0.0475 -0.5625,0.15625 l -0.59365,1.96875 -0.5,0.15625 0.21875,0.15625 0.65625,2.03125 2.90625,0.71875 0.84375,2.03125 -2.03125,2.65625 1.53125,2.71875 3.84375,-1.71875 0.46875,-1.5625 2.46875,0.46875 1.8125,-1.53125 2.4375,1.59375 2.46875,-0.1875 2.6875,1.375 3.8125,0.0625 2.90625,0.71875 0.40625,0.125 0.28125,-1 3.625,-0.40625 3.59375,-1.3125 4.28125,-1.28125 3.375,-0.40625 3.59375,1.625 2.9375,-1.0625 2.21875,0.46875 0.40625,3.15625 3.375,-0.40625 2.71875,-1.3125 1.75,2.71875 3.375,0.0625 -0.625,-3.375 1.59375,-0.4375 3.5625,0.71875 2.40625,-1.6875 z"
       id="path9085" />
    <path
       style="opacity:0.98999999;fill:#768cb0;fill-opacity:1;fill-rule:evenodd;stroke:#ffffff;stroke-opacity:1;display:inline"
       d="m 137.5625,83.968756 2.90625,2.0625 3.375,-0.1875 0.625,2.46875 -2.46875,0.875 0.625,2.25 4.5,-0.59375 1.09375,2.9375 0.59375,4.03125 1.53125,3.187504 0.40625,2.6875 -1.15625,3.59375 -2.0625,2.4375 -4.6875,-1.1875 -2.96875,2.40625 -3.34375,-1.15625 -2.03125,0.1875 -2.71875,2 -5.375,-1.4375 -1.78125,-1.8125 -2.21875,-1.84375 -1.34375,-1.125 2.0625,-1.09375 1.15625,-4.03125 -1.75,-2.062504 -0.875,-1.8125 0.46875,-2.46875 -1.96875,-2.5 1.375,-2.21875 1.8125,-0.875 2.03125,-0.875 2.46875,1.1875 3.375,-1.3125 2.5,-1.53125 3.84375,-2.1875 z"
       id="path9091" />
    <path
       style="opacity:0.98999999;fill:#9eb4d9;fill-opacity:1;fill-rule:evenodd;stroke:#ffffff;stroke-opacity:1;display:inline"
       d="m 97.09375,29.750006 0.59375,0.65625 3.125,0.4375 2.03125,-0.84375 3.125,0.9375 1.09375,1.8125 2.25,0.46875 2.4375,1.15625 2.25,1.84375 4.9375,-0.84375 2,2.28125 1.9375,4.75 1.3125,2.28125 2.46875,0.46875 3.40625,-1.75 2.71875,-1.53125 3.15625,-1.3125 2.8125,0.15625 3.25,0.84375 3.34375,1.40625 3.34375,0.71875 2.0625,-0.875 1.8125,-2.6875 3.625,-1.0625 -0.1875,-3.375 1.8125,-1.53125 -0.15625,-3.59375 2.28125,-2 1.59375,-1.3125 1.8125,-1.78125 -0.21875,-1.59375 -2.4375,-2.28125 -0.0312,-0.46875 -0.34375,-0.0625 -2.96875,-1.9375 -1.9375,1.875 -1.5,0.71875 -2.65625,-0.0312 -1.28125,-2.65625 -1.28125,-2.46875 -3.03125,-1 -2.625,-0.59375 -4.125,-1.78125 -1.3125,-1.125 0.0625,-3.0312497 -4.34375,-1.75 -1.7188,1.09375 -4.15625,0.125 -3.9375,-1 -2.8125,-0.96875 -0.9375,-2.09375 -1.46875,-0.96875 -0.15625,-3.03125001 -0.1875,-0.40625 -0.1875,0.0312 L 114.53125,6.2939453e-6 114.6875,1.9062563 l -2.46875,1.84375 -0.40625,1.3125 -2.53125,0.9688 0.875,2.15625 -0.96875,0.90625 -1.71875,-2.375 -3.0625,1.28125 -2.4375,-0.25 -2.65625,-0.21875 -2.65625,1.46875 -2.28125,0.71875 -0.78125,-0.21875 -0.375,2.0937497 -0.59375,1.5 0.71875,2.09375 -0.59375,1.875 -0.96875,1.6875 0.9375,1.15625 2.09375,-0.90625 2.25,0.59375 1.125,0.1875 0.9375,2.46875 -0.0312,1.71875 -1.71875,0.34375 -1.34375,2.25 1.6875,1.53125 -0.21875,1.5 c -0.14545,0.11299 -0.26433,0.0821 -0.40625,0.15625 z"
       id="path2842-5-7" />
  </g>
  <g
     inkscape:groupmode="layer"
     id="layer4"
     inkscape:label="powiaty"
     style="display:inline"
     transform="translate(0.5,0.49999371)">
    <text
       xml:space="preserve"
       style="font-size:8px;font-style:normal;font-variant:normal;font-weight:normal;font-stretch:normal;text-align:start;line-height:100%;writing-mode:lr-tb;text-anchor:start;fill:#ffffff;fill-opacity:1;stroke:none;font-family:Arial;-inkscape-font-specification:Arial"
       x="109.32904"
       y="27.40279"
       id="text5698-0"
       sodipodi:linespacing="100%"><tspan
         sodipodi:role="line"
         id="tspan5700-3"
         x="109.32904"
         y="27.40279">Kutnowski</tspan></text>
    <text
       xml:space="preserve"
       style="font-size:8px;font-style:normal;font-variant:normal;font-weight:normal;font-stretch:normal;text-align:start;line-height:100%;writing-mode:lr-tb;text-anchor:start;fill:#ffffff;fill-opacity:1;stroke:none;font-family:Arial;-inkscape-font-specification:Arial"
       x="156.96306"
       y="49.592041"
       id="text5702-0"
       sodipodi:linespacing="100%"><tspan
         sodipodi:role="line"
         id="tspan5704-3"
         x="156.96306"
         y="49.592041">Łowicki</tspan></text>
    <text
       xml:space="preserve"
       style="font-size:8px;font-style:normal;font-variant:normal;font-weight:normal;font-stretch:normal;text-align:start;line-height:100%;writing-mode:lr-tb;text-anchor:start;fill:#ffffff;fill-opacity:1;stroke:none;font-family:Arial;-inkscape-font-specification:Arial"
       x="92.209938"
       y="51.477177"
       id="text5706-5"
       sodipodi:linespacing="100%"><tspan
         sodipodi:role="line"
         id="tspan5708-0"
         x="92.209938"
         y="51.477177">Łęczycki</tspan></text>
    <text
       xml:space="preserve"
       style="font-size:8px;font-style:normal;font-variant:normal;font-weight:normal;font-stretch:normal;text-align:start;line-height:100%;writing-mode:lr-tb;text-anchor:start;fill:#ffffff;fill-opacity:1;stroke:none;font-family:Arial;-inkscape-font-specification:Arial"
       x="70.895119"
       y="76.159187"
       id="text5710-7"
       sodipodi:linespacing="100%"><tspan
         sodipodi:role="line"
         id="tspan5712-6"
         x="70.895119"
         y="76.159187">Poddę-</tspan><tspan
         sodipodi:role="line"
         x="70.895119"
         y="84.159187"
         id="tspan3979">bicki</tspan></text>
    <text
       xml:space="preserve"
       style="font-size:8px;font-style:normal;font-variant:normal;font-weight:normal;font-stretch:normal;text-align:start;line-height:100%;writing-mode:lr-tb;text-anchor:start;fill:#ffffff;fill-opacity:1;stroke:none;font-family:Arial;-inkscape-font-specification:Arial"
       x="115.62619"
       y="77.095886"
       id="text5714-7"
       sodipodi:linespacing="100%"><tspan
         sodipodi:role="line"
         id="tspan5716-8"
         x="115.62619"
         y="77.095886">Zgierski</tspan></text>
    <text
       xml:space="preserve"
       style="font-size:8px;font-style:normal;font-variant:normal;font-weight:normal;font-stretch:normal;text-align:start;line-height:100%;writing-mode:lr-tb;text-anchor:start;fill:#ffffff;fill-opacity:1;stroke:none;font-family:Arial;-inkscape-font-specification:Arial"
       x="156.32372"
       y="88.064751"
       id="text5718-3"
       sodipodi:linespacing="100%"><tspan
         sodipodi:role="line"
         id="tspan5720-6"
         x="156.32372"
         y="88.064751"
         style="font-size:7px">Brze-</tspan><tspan
         sodipodi:role="line"
         x="156.32372"
         y="95.064751"
         id="tspan3981"
         style="font-size:7px">ziński</tspan></text>
    <text
       xml:space="preserve"
       style="font-size:8px;font-style:normal;font-variant:normal;font-weight:normal;font-stretch:normal;text-align:start;line-height:100%;writing-mode:lr-tb;text-anchor:start;fill:#ffffff;fill-opacity:1;stroke:none;font-family:Arial;-inkscape-font-specification:Arial"
       x="198.33755"
       y="70.937981"
       id="text5722-4"
       sodipodi:linespacing="100%"><tspan
         sodipodi:role="line"
         id="tspan5724-4"
         x="198.33755"
         y="70.937981">3</tspan></text>
    <text
       xml:space="preserve"
       style="font-size:8px;font-style:normal;font-variant:normal;font-weight:normal;font-stretch:normal;text-align:start;line-height:100%;writing-mode:lr-tb;text-anchor:start;fill:#ffffff;fill-opacity:1;stroke:none;font-family:Arial;-inkscape-font-specification:Arial"
       x="172.83167"
       y="125.39511"
       id="text5726-1"
       sodipodi:linespacing="100%"><tspan
         sodipodi:role="line"
         x="172.83167"
         y="125.39511"
         id="tspan5780-5">Tomaszowski</tspan></text>
    <text
       xml:space="preserve"
       style="font-size:8px;font-style:normal;font-variant:normal;font-weight:normal;font-stretch:normal;text-align:start;line-height:100%;writing-mode:lr-tb;text-anchor:start;fill:#ffffff;fill-opacity:1;stroke:none;font-family:Arial;-inkscape-font-specification:Arial"
       x="185.48468"
       y="158.85526"
       id="text5730-5"
       sodipodi:linespacing="100%"><tspan
         sodipodi:role="line"
         id="tspan5732-7"
         x="185.48468"
         y="158.85526">Opoczyński</tspan></text>
    <text
       xml:space="preserve"
       style="font-size:8px;font-style:normal;font-variant:normal;font-weight:normal;font-stretch:normal;text-align:start;line-height:100%;writing-mode:lr-tb;text-anchor:start;fill:#ffffff;fill-opacity:1;stroke:none;font-family:Arial;-inkscape-font-specification:Arial"
       x="154.89928"
       y="157.24513"
       id="text5734-4"
       sodipodi:linespacing="100%"><tspan
         sodipodi:role="line"
         x="154.89928"
         y="157.24513"
         id="tspan5738-3">2</tspan></text>
    <text
       xml:space="preserve"
       style="font-size:8px;font-style:normal;font-variant:normal;font-weight:normal;font-stretch:normal;text-align:start;line-height:100%;writing-mode:lr-tb;text-anchor:start;fill:#ffffff;fill-opacity:1;stroke:none;font-family:Arial;-inkscape-font-specification:Arial"
       x="130.3877"
       y="212.70885"
       id="text5740-4"
       sodipodi:linespacing="100%"><tspan
         sodipodi:role="line"
         id="tspan5742-0"
         x="130.3877"
         y="212.70885">Radomski</tspan></text>
    <text
       xml:space="preserve"
       style="font-size:8px;font-style:normal;font-variant:normal;font-weight:normal;font-stretch:normal;text-align:start;line-height:100%;writing-mode:lr-tb;text-anchor:start;fill:#ffffff;fill-opacity:1;stroke:none;font-family:Arial;-inkscape-font-specification:Arial"
       x="67.802956"
       y="203.27255"
       id="text5744-8"
       sodipodi:linespacing="100%"><tspan
         sodipodi:role="line"
         id="tspan5746-8"
         x="67.802956"
         y="203.27255">Pajęczański</tspan></text>
    <text
       xml:space="preserve"
       style="font-size:8px;font-style:normal;font-variant:normal;font-weight:normal;font-stretch:normal;text-align:start;line-height:100%;writing-mode:lr-tb;text-anchor:start;fill:#ffffff;fill-opacity:1;stroke:none;font-family:Arial;-inkscape-font-specification:Arial"
       x="28.773148"
       y="186.71875"
       id="text5748-1"
       sodipodi:linespacing="100%"><tspan
         sodipodi:role="line"
         id="tspan5750-5"
         x="28.773148"
         y="186.71875">Wieluński</tspan></text>
    <text
       xml:space="preserve"
       style="font-size:8px;font-style:normal;font-variant:normal;font-weight:normal;font-stretch:normal;text-align:start;line-height:100%;writing-mode:lr-tb;text-anchor:start;fill:#ffffff;fill-opacity:1;stroke:none;font-family:Arial;-inkscape-font-specification:Arial"
       x="10.233155"
       y="165.02899"
       id="text5752-2"
       sodipodi:linespacing="100%"><tspan
         sodipodi:role="line"
         id="tspan5754-3"
         x="10.233155"
         y="165.02899">Wieru-</tspan><tspan
         sodipodi:role="line"
         x="10.233155"
         y="173.02899"
         id="tspan3977">szo-</tspan><tspan
         sodipodi:role="line"
         x="10.233155"
         y="181.02899"
         id="tspan5962">wski</tspan></text>
    <text
       xml:space="preserve"
       style="font-size:8px;font-style:normal;font-variant:normal;font-weight:normal;font-stretch:normal;text-align:start;line-height:100%;writing-mode:lr-tb;text-anchor:start;fill:#ffffff;fill-opacity:1;stroke:none;font-family:Arial;-inkscape-font-specification:Arial"
       x="85.870491"
       y="172.05717"
       id="text5756-2"
       sodipodi:linespacing="100%"><tspan
         sodipodi:role="line"
         id="tspan5758-4"
         x="85.870491"
         y="172.05717">Bełchatowski</tspan></text>
    <text
       xml:space="preserve"
       style="font-size:8px;font-style:normal;font-variant:normal;font-weight:normal;font-stretch:normal;text-align:start;line-height:100%;writing-mode:lr-tb;text-anchor:start;fill:#ffffff;fill-opacity:1;stroke:none;font-family:Arial;-inkscape-font-specification:Arial"
       x="35.627377"
       y="126.52571"
       id="text5760-6"
       sodipodi:linespacing="100%"><tspan
         sodipodi:role="line"
         id="tspan5762-6"
         x="35.627377"
         y="126.52571">Sieradzki</tspan></text>
    <text
       xml:space="preserve"
       style="font-size:8px;font-style:normal;font-variant:normal;font-weight:normal;font-stretch:normal;text-align:start;line-height:100%;writing-mode:lr-tb;text-anchor:start;fill:#ffffff;fill-opacity:1;stroke:none;font-family:Arial;-inkscape-font-specification:Arial"
       x="76.770325"
       y="108.2807"
       id="text5764-6"
       sodipodi:linespacing="100%"><tspan
         sodipodi:role="line"
         x="76.770325"
         y="108.2807"
         id="tspan5788-9"
         style="font-size:7px">Zduń-</tspan><tspan
         sodipodi:role="line"
         x="76.770325"
         y="115.2807"
         style="font-size:7px"
         id="tspan4091">sko-</tspan><tspan
         sodipodi:role="line"
         x="76.770325"
         y="122.2807"
         id="tspan5964"
         style="font-size:7px">wol-</tspan><tspan
         sodipodi:role="line"
         x="76.770325"
         y="129.2807"
         style="font-size:7px"
         id="tspan4093">ski</tspan></text>
    <text
       xml:space="preserve"
       style="font-size:8px;font-style:normal;font-variant:normal;font-weight:normal;font-stretch:normal;text-align:start;line-height:100%;writing-mode:lr-tb;text-anchor:start;fill:#ffffff;fill-opacity:1;stroke:none;font-family:Arial;-inkscape-font-specification:Arial"
       x="110.98151"
       y="111.99576"
       id="text5768-0"
       sodipodi:linespacing="100%"><tspan
         sodipodi:role="line"
         id="tspan5770-4"
         x="110.98151"
         y="111.99576">Pa-</tspan><tspan
         sodipodi:role="line"
         x="110.98151"
         y="119.99576"
         id="tspan3983">bia-</tspan><tspan
         sodipodi:role="line"
         x="110.98151"
         y="127.99576"
         id="tspan5966">nicki</tspan></text>
    <text
       xml:space="preserve"
       style="font-size:8px;font-style:normal;font-variant:normal;font-weight:normal;font-stretch:normal;text-align:start;line-height:100%;writing-mode:lr-tb;text-anchor:start;fill:#ffffff;fill-opacity:1;stroke:none;font-family:Arial;-inkscape-font-specification:Arial"
       x="89.198875"
       y="138.34196"
       id="text5772-9"
       sodipodi:linespacing="100%"><tspan
         sodipodi:role="line"
         id="tspan5774-3"
         x="89.198875"
         y="138.34196">Łaski</tspan></text>
    <text
       xml:space="preserve"
       style="font-size:8px;font-style:normal;font-variant:normal;font-weight:normal;font-stretch:normal;text-align:start;line-height:100%;writing-mode:lr-tb;text-anchor:start;fill:#ffffff;fill-opacity:1;stroke:none;font-family:Arial;-inkscape-font-specification:Arial"
       x="132.00957"
       y="102.93085"
       id="text5776-1"
       sodipodi:linespacing="100%"><tspan
         sodipodi:role="line"
         id="tspan5778-1"
         x="132.00957"
         y="102.93085">1</tspan></text>
    <text
       xml:space="preserve"
       style="font-size:8px;font-style:normal;font-variant:normal;font-weight:normal;font-stretch:normal;text-align:start;line-height:100%;writing-mode:lr-tb;text-anchor:start;fill:#ffffff;fill-opacity:1;stroke:none;font-family:Arial;-inkscape-font-specification:Arial"
       x="209.21356"
       y="99.273384"
       id="text5782-9"
       sodipodi:linespacing="100%"><tspan
         sodipodi:role="line"
         x="209.21356"
         y="99.273384"
         id="tspan5786-5">Rawski</tspan></text>
    <text
       xml:space="preserve"
       style="font-size:8px;font-style:normal;font-variant:normal;font-weight:normal;font-stretch:normal;text-align:start;line-height:100%;writing-mode:lr-tb;text-anchor:start;fill:#ffffff;fill-opacity:1;stroke:none;font-family:Arial;-inkscape-font-specification:Arial"
       x="144.11508"
       y="179.93262"
       id="text5952"
       sodipodi:linespacing="100%"><tspan
         sodipodi:role="line"
         id="tspan5954"
         x="144.11508"
         y="179.93262">Piotrkowski</tspan></text>
    <text
       xml:space="preserve"
       style="font-size:8px;font-style:normal;font-variant:normal;font-weight:normal;font-stretch:normal;text-align:start;line-height:100%;writing-mode:lr-tb;text-anchor:start;fill:#ffffff;fill-opacity:1;stroke:none;font-family:Arial;-inkscape-font-specification:Arial"
       x="132.77893"
       y="117.19092"
       id="text5958"
       sodipodi:linespacing="100%"><tspan
         sodipodi:role="line"
         x="132.77893"
         y="117.19092"
         id="tspan5968"
         style="font-size:7px">Wscho-</tspan><tspan
         sodipodi:role="line"
         x="132.77893"
         y="124.19092"
         style="font-size:7px"
         id="tspan3985">dni</tspan></text>
    <text
       xml:space="preserve"
       style="font-size:8px;font-style:normal;font-variant:normal;font-weight:normal;font-stretch:normal;text-align:start;line-height:100%;writing-mode:lr-tb;text-anchor:start;fill:#ffffff;fill-opacity:1;stroke:none;font-family:Arial;-inkscape-font-specification:Arial"
       x="180.68576"
       y="80.177917"
       id="text5722-4-5"
       sodipodi:linespacing="100%"><tspan
         sodipodi:role="line"
         id="tspan5724-4-5"
         x="180.68576"
         y="80.177917">Skierniewicki</tspan></text>
    <text
       xml:space="preserve"
       style="font-size:8px;font-style:normal;font-variant:normal;font-weight:normal;font-stretch:normal;text-align:start;line-height:100%;writing-mode:lr-tb;text-anchor:start;fill:#ffffff;fill-opacity:1;stroke:none;display:inline;font-family:Arial;-inkscape-font-specification:Arial"
       x="155.78664"
       y="99.920166"
       id="text5958-1"
       sodipodi:linespacing="100%"><tspan
         sodipodi:role="line"
         x="155.78664"
         y="99.920166"
         style="font-size:7px"
         id="tspan3985-0" /><tspan
         sodipodi:role="line"
         x="155.78664"
         y="106.92017"
         style="font-size:7px"
         id="tspan4022">Łódzki</tspan></text>
  </g>
  <g
     inkscape:groupmode="layer"
     id="layer5"
     inkscape:label="legenda"
     transform="translate(0.5,0.49999371)">
    <rect
       style="fill:#ffffff;fill-opacity:1;fill-rule:nonzero;stroke:#768cb0;stroke-width:2.19600368;stroke-linecap:butt;stroke-miterlimit:4;stroke-opacity:1;stroke-dasharray:none;stroke-dashoffset:0;display:inline"
       id="rect3812"
       width="69.842651"
       height="68.593086"
       x="234.18758"
       y="173.02242"
       inkscape:export-filename="C:\Moje_Skarby\MojaFirma\ZdobywcaBiegow\Grafika\output\kujawskopomorskie.png"
       inkscape:export-xdpi="272.87372"
       inkscape:export-ydpi="272.87372" />
    <text
       xml:space="preserve"
       style="font-size:8px;font-style:normal;font-variant:normal;font-weight:normal;font-stretch:normal;text-align:start;line-height:100%;writing-mode:lr-tb;text-anchor:start;fill:#768cb0;fill-opacity:0.99215686;stroke:none;display:inline;font-family:Arial;-inkscape-font-specification:Arial"
       x="241.54198"
       y="212.01144"
       id="text8281-9"
       sodipodi:linespacing="100%"
       inkscape:export-filename="C:\Moje_Skarby\MojaFirma\ZdobywcaBiegow\Grafika\output\kujawskopomorskie.png"
       inkscape:export-xdpi="272.87372"
       inkscape:export-ydpi="272.87372"><tspan
         sodipodi:role="line"
         id="tspan8283-1"
         x="241.54198"
         y="212.01144">1 - Łódź</tspan><tspan
         sodipodi:role="line"
         x="241.54198"
         y="220.01144"
         id="tspan3200">2 - Piotrków</tspan><tspan
         sodipodi:role="line"
         x="241.54198"
         y="228.01144"
         id="tspan4087">     Trybunalski</tspan><tspan
         sodipodi:role="line"
         x="241.54198"
         y="236.01144"
         id="tspan3862">3 - Skierniewice</tspan><tspan
         sodipodi:role="line"
         x="241.54198"
         y="244.01144"
         id="tspan3763" /></text>
    <text
       xml:space="preserve"
       style="font-size:9px;font-style:normal;font-weight:normal;line-height:100%;fill:#768cb0;fill-opacity:0.99215686;stroke:none;display:inline;font-family:Times New Roman;-inkscape-font-specification:Times New Roman"
       x="257.91769"
       y="182.90178"
       id="text3828"
       sodipodi:linespacing="100%"
       inkscape:export-filename="C:\Moje_Skarby\MojaFirma\ZdobywcaBiegow\Grafika\output\kujawskopomorskie.png"
       inkscape:export-xdpi="272.87372"
       inkscape:export-ydpi="272.87372"><tspan
         sodipodi:role="line"
         id="tspan3830"
         x="257.91769"
         y="182.90178"
         style="font-size:8px;font-style:normal;font-variant:normal;font-weight:normal;font-stretch:normal;text-align:start;line-height:100%;writing-mode:lr-tb;text-anchor:start;fill:#768cb0;fill-opacity:0.99215686;font-family:Arial;-inkscape-font-specification:Arial">miasta na </tspan><tspan
         sodipodi:role="line"
         x="257.91769"
         y="190.90178"
         id="tspan3832"
         style="font-size:8px;font-style:normal;font-variant:normal;font-weight:normal;font-stretch:normal;text-align:start;line-height:100%;writing-mode:lr-tb;text-anchor:start;fill:#768cb0;fill-opacity:0.99215686;font-family:Arial;-inkscape-font-specification:Arial">prawach </tspan><tspan
         sodipodi:role="line"
         x="257.91769"
         y="198.90178"
         id="tspan3834"
         style="font-size:8px;font-style:normal;font-variant:normal;font-weight:normal;font-stretch:normal;text-align:start;line-height:100%;writing-mode:lr-tb;text-anchor:start;fill:#768cb0;fill-opacity:0.99215686;font-family:Arial;-inkscape-font-specification:Arial">powiatu</tspan></text>
    <rect
       style="fill:#768cb0;fill-opacity:0.99215686;fill-rule:nonzero;stroke:none;display:inline"
       id="rect3836"
       width="11.702203"
       height="12.843882"
       x="238.42868"
       y="177.6268"
       inkscape:export-filename="C:\Moje_Skarby\MojaFirma\ZdobywcaBiegow\Grafika\output\kujawskopomorskie.png"
       inkscape:export-xdpi="272.87372"
       inkscape:export-ydpi="272.87372" />
  </g>
</svg>
